<svg width="545" height="66" viewBox="0 0 545 66" fill="none" xmlns="http://www.w3.org/2000/svg">
<path d="M531.195 62.677C531.862 62.061 532.196 61.06 532.196 59.674C532.196 58.5447 531.965 57.1587 531.503 55.516C531.092 53.8733 530.451 51.7687 529.578 49.202L516.796 14.013C516.077 12.2677 515.256 10.5223 514.332 8.777L499.163 50.973C497.88 54.9257 497.238 57.8517 497.238 59.751C497.238 61.0857 497.546 62.061 498.162 62.677H490C491.232 61.4963 492.618 59.7253 494.158 57.364C495.698 55.0027 497.058 52.282 498.239 49.202L513.331 7.083C511.688 4.311 510.174 2.28334 508.788 1H518.336L536.046 49.664C537.227 52.5387 538.561 55.1567 540.05 57.518C541.59 59.8793 542.925 61.599 544.054 62.677H531.195Z" fill="#662435"/>
<path d="M457 62.677C457.975 61.753 458.745 60.0077 459.31 57.441C459.926 54.823 460.234 51.897 460.234 48.663V15.014C460.234 11.78 459.926 8.87967 459.31 6.313C458.745 3.695 457.975 1.924 457 1H495.038V7.006C493.703 5.62 492.061 4.542 490.11 3.772C488.159 2.95067 485.131 2.54 481.024 2.54H472.477C470.526 2.54 469.063 3.10467 468.088 4.234C467.164 5.36333 466.574 6.775 466.317 8.469C466.112 10.1117 466.009 12.2933 466.009 15.014V30.876C466.83 29.3873 468.011 28.335 469.551 27.719C471.091 27.0517 473.042 26.718 475.403 26.718H477.944C480.973 26.718 483.796 26.3073 486.414 25.486C489.083 24.6647 490.931 23.715 491.958 22.637V32.339C490.931 31.261 489.083 30.3113 486.414 29.49C483.796 28.6687 480.973 28.258 477.944 28.258H475.403C472.118 28.258 469.731 29.028 468.242 30.568C466.753 32.0567 466.009 34.6747 466.009 38.422V48.663C466.009 51.3837 466.112 53.591 466.317 55.285C466.574 56.9277 467.164 58.3137 468.088 59.443C469.063 60.5723 470.552 61.137 472.554 61.137H480.485C484.9 61.137 488.288 60.4953 490.649 59.212C493.062 57.8773 495.038 56.3373 496.578 54.592L494.73 61.137L494.268 62.677H457Z" fill="#662435"/>
<path d="M417 62.677C417.975 61.753 418.745 60.0077 419.31 57.441C419.926 54.823 420.234 51.897 420.234 48.663V15.014C420.234 11.78 419.926 8.87967 419.31 6.313C418.745 3.695 417.975 1.924 417 1H429.243C428.268 1.924 427.472 3.695 426.856 6.313C426.291 8.87967 426.009 11.78 426.009 15.014V48.663C426.009 51.3837 426.112 53.591 426.317 55.285C426.574 56.9277 427.164 58.3137 428.088 59.443C429.063 60.5723 430.552 61.137 432.554 61.137H441.255C445.67 61.137 449.058 60.4953 451.419 59.212C453.832 57.8773 455.808 56.3373 457.348 54.592L455.5 61.137L455.038 62.677H417Z" fill="#662435"/>
<path d="M405 62.677C405.975 61.753 406.745 60.0077 407.31 57.441C407.926 54.823 408.234 51.897 408.234 48.663V15.014C408.234 11.78 407.926 8.87967 407.31 6.313C406.745 3.695 405.975 1.924 405 1H417.243C416.268 1.924 415.472 3.695 414.856 6.313C414.291 8.87967 414.009 11.78 414.009 15.014V48.663C414.009 51.897 414.291 54.823 414.856 57.441C415.472 60.0077 416.268 61.753 417.243 62.677H405Z" fill="#662435"/>
<path d="M365 62.677C365.975 61.753 366.745 60.0077 367.31 57.441C367.926 54.823 368.234 51.897 368.234 48.663V15.014C368.234 11.78 367.926 8.87967 367.31 6.313C366.745 3.695 365.975 1.924 365 1H377.243C376.268 1.924 375.472 3.695 374.856 6.313C374.291 8.87967 374.009 11.78 374.009 15.014V48.663C374.009 51.3837 374.112 53.591 374.317 55.285C374.574 56.9277 375.164 58.3137 376.088 59.443C377.063 60.5723 378.552 61.137 380.554 61.137H389.255C393.67 61.137 397.058 60.4953 399.419 59.212C401.832 57.8773 403.808 56.3373 405.348 54.592L403.5 61.137L403.038 62.677H365Z" fill="#662435"/>
<path d="M325 62.677C325.975 61.753 326.745 60.0077 327.31 57.441C327.926 54.823 328.234 51.897 328.234 48.663V15.014C328.234 11.78 327.926 8.87967 327.31 6.313C326.745 3.695 325.975 1.924 325 1H337.243C336.268 1.924 335.472 3.695 334.856 6.313C334.291 8.87967 334.009 11.78 334.009 15.014V48.663C334.009 51.3837 334.112 53.591 334.317 55.285C334.574 56.9277 335.164 58.3137 336.088 59.443C337.063 60.5723 338.552 61.137 340.554 61.137H349.255C353.67 61.137 357.058 60.4953 359.419 59.212C361.832 57.8773 363.808 56.3373 365.348 54.592L363.5 61.137L363.038 62.677H325Z" fill="#662435"/>
<path d="M311 62.677C311.975 61.753 312.745 60.0077 313.31 57.441C313.926 54.823 314.234 51.897 314.234 48.663V15.014C314.234 11.78 313.926 8.87967 313.31 6.313C312.745 3.695 311.975 1.924 311 1H323.243C322.268 1.924 321.472 3.695 320.856 6.313C320.291 8.87967 320.009 11.78 320.009 15.014V48.663C320.009 51.897 320.291 54.823 320.856 57.441C321.472 60.0077 322.268 61.753 323.243 62.677H311Z" fill="#662435"/>
<path d="M265 62.677C265.975 61.753 266.745 60.0077 267.31 57.441C267.926 54.823 268.234 51.897 268.234 48.663V15.014C268.234 11.78 267.926 8.87967 267.31 6.313C266.745 3.695 265.975 1.924 265 1H277.243C276.268 1.924 275.472 3.695 274.856 6.313C274.291 8.87967 274.009 11.78 274.009 15.014V37.652C274.009 36.266 274.343 34.9057 275.01 33.571C275.729 32.185 276.73 31.0557 278.013 30.183C279.348 29.3103 280.862 28.874 282.556 28.874C283.583 28.874 284.558 28.951 285.482 29.105L294.568 12.011C295.697 9.75233 296.544 7.90434 297.109 6.467C297.674 5.02967 297.956 3.82334 297.956 2.848C297.956 2.078 297.725 1.462 297.263 1H310.507C309.07 1.97533 307.376 3.66933 305.425 6.082C303.526 8.44334 301.729 11.241 300.035 14.475L290.949 31.415C293.772 33.3657 295.903 36.4713 297.34 40.732L300.805 50.896C301.883 53.7193 303.089 56.132 304.424 58.134C305.759 60.136 307.068 61.6503 308.351 62.677H298.572L291.18 40.963C290.359 38.4477 289.152 36.1377 287.561 34.033C286.021 31.877 284.147 30.799 281.94 30.799C279.527 30.799 277.602 32.1337 276.165 34.803C274.728 37.4723 274.009 41.9127 274.009 48.124V48.663C274.009 51.897 274.291 54.823 274.856 57.441C275.472 60.0077 276.268 61.753 277.243 62.677H265Z" fill="#662435"/>
<path d="M173 62.677C173.975 61.753 174.745 60.0077 175.31 57.441C175.926 54.823 176.234 51.897 176.234 48.663V15.014C176.234 11.78 175.926 8.87967 175.31 6.313C174.745 3.695 173.975 1.924 173 1H211.038V7.006C209.703 5.62 208.061 4.542 206.11 3.772C204.159 2.95067 201.131 2.54 197.024 2.54H188.477C186.526 2.54 185.063 3.10467 184.088 4.234C183.164 5.36333 182.574 6.775 182.317 8.469C182.112 10.1117 182.009 12.2933 182.009 15.014V30.876C182.83 29.3873 184.011 28.335 185.551 27.719C187.091 27.0517 189.042 26.718 191.403 26.718H193.944C196.973 26.718 199.796 26.3073 202.414 25.486C205.083 24.6647 206.931 23.715 207.958 22.637V32.339C206.931 31.261 205.083 30.3113 202.414 29.49C199.796 28.6687 196.973 28.258 193.944 28.258H191.403C188.118 28.258 185.731 29.028 184.242 30.568C182.753 32.0567 182.009 34.6747 182.009 38.422V48.663C182.009 51.3837 182.112 53.591 182.317 55.285C182.574 56.9277 183.164 58.3137 184.088 59.443C185.063 60.5723 186.552 61.137 188.554 61.137H196.485C200.9 61.137 204.288 60.4953 206.649 59.212C209.062 57.8773 211.038 56.3373 212.578 54.592L210.73 61.137L210.268 62.677H173Z" fill="#662435"/>
<path d="M151.948 64.064C147.431 64.064 143.273 62.8833 139.474 60.522C135.675 58.1093 132.647 54.4903 130.388 49.665C128.129 44.7883 127 38.885 127 31.955C127 25.025 128.129 19.173 130.388 14.399C132.647 9.57366 135.675 5.98033 139.474 3.619C143.273 1.20633 147.431 0 151.948 0C156.465 0 160.623 1.20633 164.422 3.619C168.272 5.98033 171.326 9.57366 173.585 14.399C175.895 19.2243 177.05 25.0763 177.05 31.955C177.05 38.885 175.895 44.7627 173.585 49.588C171.326 54.4133 168.272 58.0323 164.422 60.445C160.623 62.8577 156.465 64.064 151.948 64.064ZM133.699 31.955C134.315 39.2957 135.701 45.199 137.857 49.665C140.013 54.131 142.554 57.3137 145.48 59.213C148.406 61.061 151.46 61.985 154.643 61.985C159.16 61.985 162.933 60.137 165.962 56.441C169.042 52.6937 170.582 46.5593 170.582 38.038C170.582 36.1387 170.505 34.111 170.351 31.955C169.735 24.6143 168.323 18.7367 166.116 14.322C163.96 9.856 161.393 6.699 158.416 4.851C155.49 3.003 152.436 2.079 149.253 2.079C144.787 2.079 141.04 3.927 138.011 7.623C134.982 11.319 133.468 17.402 133.468 25.872C133.468 27.7713 133.545 29.799 133.699 31.955Z" fill="#662435"/>
<path d="M96 63.677C96.9753 62.753 97.7453 61.0077 98.31 58.441C98.926 55.823 99.234 52.897 99.234 49.663V16.014C99.234 12.78 98.926 9.87967 98.31 7.313C97.7453 4.695 96.9753 2.924 96 2H108.243C107.268 2.924 106.472 4.695 105.856 7.313C105.291 9.87967 105.009 12.78 105.009 16.014V49.663C105.009 52.3837 105.112 54.591 105.317 56.285C105.574 57.9277 106.164 59.3137 107.088 60.443C108.063 61.5723 109.552 62.137 111.554 62.137H120.255C124.67 62.137 128.058 61.4953 130.419 60.212C132.832 58.8773 134.808 57.3373 136.348 55.592L134.5 62.137L134.038 63.677H96Z" fill="#662435"/>
<path d="M43 64.677C43.9753 63.753 44.7453 62.0077 45.31 59.441C45.926 56.823 46.234 53.897 46.234 50.663V17.014C46.234 13.78 45.926 10.8797 45.31 8.313C44.7453 5.695 43.9753 3.924 43 3H55.243C54.2677 3.924 53.472 5.695 52.856 8.313C52.2913 10.8797 52.009 13.78 52.009 17.014V39.96C52.8303 38.5227 54.0367 37.4703 55.628 36.803C57.2707 36.1357 59.324 35.7763 61.788 35.725C66.716 35.6223 70.412 34.9807 72.876 33.8C75.34 32.568 76.9827 30.7713 77.804 28.41C78.6767 25.9973 79.113 22.635 79.113 18.323V17.014C79.113 13.78 78.805 10.8797 78.189 8.313C77.6243 5.695 76.8543 3.924 75.879 3H88.122C87.1467 3.924 86.351 5.695 85.735 8.313C85.1703 10.8797 84.888 13.78 84.888 17.014V50.663C84.888 53.897 85.1703 56.823 85.735 59.441C86.351 62.0077 87.1467 63.753 88.122 64.677H75.879C76.8543 63.753 77.6243 62.0077 78.189 59.441C78.805 56.823 79.113 53.897 79.113 50.663V33.877C77.3677 35.0577 75.1347 35.9047 72.414 36.418C69.6933 36.88 66.254 37.1623 62.096 37.265C58.4513 37.3677 55.859 38.1377 54.319 39.575C52.779 41.0123 52.009 43.6047 52.009 47.352V50.663C52.009 53.897 52.2913 56.823 52.856 59.441C53.472 62.0077 54.2677 63.753 55.243 64.677H43Z" fill="#662435"/>
<path d="M24.948 65.064C20.4307 65.064 16.2727 63.8833 12.474 61.522C8.67533 59.1093 5.64667 55.4903 3.388 50.665C1.12933 45.7883 0 39.885 0 32.955C0 26.025 1.12933 20.173 3.388 15.399C5.64667 10.5737 8.67533 6.98033 12.474 4.619C16.2727 2.20633 20.4307 1 24.948 1C27.6687 1 30.261 1.43633 32.725 2.309C35.2403 3.18166 37.5503 4.465 39.655 6.159L33.726 13.705C32.8533 10.317 31.3133 7.699 29.106 5.851C26.8987 4.003 24.6143 3.079 22.253 3.079C17.787 3.079 14.0397 4.927 11.011 8.623C7.98233 12.319 6.468 18.402 6.468 26.872C6.468 28.7713 6.545 30.799 6.699 32.955C7.57167 43.581 9.98433 50.9987 13.937 55.208C17.8897 59.366 22.4583 61.445 27.643 61.445C30.723 61.445 33.5463 60.8547 36.113 59.674C38.6797 58.442 41.1693 56.2347 43.582 53.052L44.814 53.976C42.504 57.6207 39.6037 60.3927 36.113 62.292C32.6737 64.14 28.952 65.064 24.948 65.064Z" fill="#662435"/>
<g clip-path="url(#clip0_293_225)">
<path d="M239.061 53.9044C251.178 53.9044 261 44.3705 261 32.6099C261 20.8492 251.178 11.3153 239.061 11.3153C226.945 11.3153 217.122 20.8492 217.122 32.6099C217.122 44.3705 226.945 53.9044 239.061 53.9044Z" fill="#C9D9E7"/>
<path d="M243.899 14.2918C243.899 14.2918 244.084 13.4448 244.719 13.7811C244.719 13.7811 241.31 10.6119 234.297 12.6168C231.074 13.5384 228.504 16.7115 226.666 19.872C223.976 24.4989 222.766 29.8087 223.304 35.0954C223.321 35.254 223.338 35.4111 223.358 35.5665C223.748 38.7286 224.974 47.4034 232.595 51.1579C239.377 54.4992 247.44 50.9168 249.132 50.088C249.351 49.9809 249.526 49.8065 249.631 49.5907C249.909 49.0173 250.241 48.0752 249.685 47.3193C249.494 47.06 249.392 46.7475 249.419 46.4295C249.477 45.7696 250.482 44.8909 252.224 47.1226C254.495 50.0325 247.092 52.3261 247.49 52.2785C247.49 52.2785 231.555 59.0595 221.337 45.4976C218.104 41.207 216.841 36.086 217.231 30.7834C217.633 25.3134 220.125 18.3191 229.231 13.5669C229.231 13.5669 238.724 8.38328 248.188 13.2386C248.188 13.2386 251.936 16.7496 247.722 17.254C243.507 17.7584 243.9 14.291 243.9 14.291L243.899 14.2918Z" fill="#D5594C"/>
<path d="M240.909 43.2571C240.909 43.2571 241.261 45.749 242.121 46.3954H236.618C236.618 46.3954 237.848 45.5119 238.078 40.9778C238.309 36.4444 238.022 24.372 238.022 24.372C238.022 24.372 237.926 20.4073 236.618 19.1606H242.121C242.121 19.1606 240.819 20.4359 240.761 24.0056" fill="#D5594C"/>
<path d="M257.338 23.3727C258.856 21.3424 254.923 23.0023 255.284 20.8975C255.284 20.8975 251.276 24.3379 247.622 32.3402L245.509 30.6589C245.509 30.6589 252.801 20.673 251.243 14.9009C252.917 15.8534 258.921 20.5604 260.307 27.3413L258.955 25.7417C258.629 25.3554 258.22 25.043 257.757 24.8257L257.701 24.7995C257.147 24.5386 256.976 23.8565 257.337 23.3727H257.338Z" fill="#D5594C"/>
<path d="M247.622 32.341C247.622 32.341 248.538 31.3901 252.259 44.0875C252.332 44.3389 252.438 44.5808 252.574 44.8052C253.01 45.5222 254.36 47.2361 256.266 45.8355C256.371 45.9401 252.887 49.7866 250.954 50.5425L249.973 45.891C249.973 45.891 247.938 45.7625 247.408 38.2932C247.349 37.4628 247.163 36.6451 246.848 35.871C245.806 33.3086 243.222 28.3819 239.984 32.5044V31.2085C239.984 31.2085 241.391 28.9902 245.509 30.6596L247.622 32.341Z" fill="#D5594C"/>
<path d="M251.46 16.7829C251.46 16.7829 250.67 14.6408 247.837 13.0522C247.837 13.0522 250.665 14.3973 251.243 14.9017C251.821 15.4061 251.461 16.7829 251.461 16.7829H251.46Z" fill="#D5594C"/>
</g>
<defs>
<clipPath id="clip0_293_225">
<rect width="44" height="43" fill="white" transform="translate(217 11)"/>
</clipPath>
</defs>
</svg>
