<svg width="284" height="274" viewBox="0 0 284 274" fill="none" xmlns="http://www.w3.org/2000/svg">
<path d="M142.395 273.391C220.601 273.391 284 212.64 284 137.7C284 62.7601 220.601 2.00936 142.395 2.00936C64.1885 2.00936 0.789795 62.7601 0.789795 137.7C0.789795 212.64 64.1885 273.391 142.395 273.391Z" fill="#C9D9E7"/>
<path d="M173.622 20.9757C173.622 20.9757 174.814 15.5784 178.912 17.7212C178.912 17.7212 156.909 -2.47325 111.643 10.3024C90.8422 16.1747 74.2504 36.3944 62.3893 56.5332C45.0275 86.0163 37.2168 119.85 40.6923 153.538C40.7978 154.549 40.9086 155.55 41.0351 156.54C43.5561 176.689 51.467 231.966 100.657 255.89C144.431 277.181 196.474 254.353 207.396 249.072C208.809 248.39 209.943 247.278 210.618 245.904C212.412 242.25 214.558 236.246 210.967 231.43C209.732 229.778 209.073 227.786 209.253 225.76C209.627 221.555 216.114 215.956 227.358 230.177C242.014 248.719 194.232 263.334 196.801 263.031C196.801 263.031 93.9485 306.239 27.9927 219.822C7.12377 192.482 -1.02445 159.85 1.49121 126.061C4.08599 91.2064 20.1715 46.6382 78.9442 16.3567C78.9442 16.3567 140.217 -16.674 201.305 14.2645C201.305 14.2645 225.496 36.637 198.293 39.8511C171.09 43.0652 173.627 20.9707 173.627 20.9707L173.622 20.9757Z" fill="#D5594C"/>
<path d="M154.319 205.545C154.319 205.545 156.592 221.424 162.146 225.543H126.626C126.626 225.543 134.563 219.913 136.05 191.021C137.538 162.134 135.687 85.2077 135.687 85.2077C135.687 85.2077 135.069 59.9445 126.626 52.0001H162.146C162.146 52.0001 153.739 60.1264 153.365 82.8729" fill="#D5594C"/>
<path d="M260.362 78.8401C270.161 65.9027 244.778 76.48 247.109 63.0676C247.109 63.0676 221.235 84.9904 197.65 135.982L184.011 125.268C184.011 125.268 231.081 61.6374 221.024 24.8569C231.83 30.9264 270.583 60.9198 279.528 104.129L270.799 93.9353C268.695 91.4742 266.058 89.4831 263.068 88.0984L262.709 87.9316C259.133 86.269 258.026 81.9228 260.357 78.8401H260.362Z" fill="#D5594C"/>
<path d="M197.65 135.987C197.65 135.987 203.562 129.928 227.579 210.837C228.054 212.439 228.734 213.98 229.615 215.41C232.426 219.979 241.144 230.9 253.443 221.975C254.123 222.642 231.635 247.152 219.157 251.968L212.823 222.329C212.823 222.329 199.691 221.51 196.268 173.915C195.888 168.623 194.686 163.413 192.655 158.481C185.931 142.152 169.25 110.759 148.349 137.028V128.77C148.349 128.77 157.436 114.635 184.011 125.273L197.65 135.987Z" fill="#D5594C"/>
<path d="M222.427 36.8493C222.427 36.8493 217.322 23.1993 199.037 13.0769C199.037 13.0769 217.295 21.6479 221.024 24.862C224.753 28.0761 222.432 36.8493 222.432 36.8493H222.427Z" fill="#D5594C"/>
</svg>
