<svg width="1400" height="255" viewBox="0 0 1400 255" fill="none" xmlns="http://www.w3.org/2000/svg">
<path d="M1308.55 204.293C1309.76 202.82 1310.37 200.425 1310.37 197.11C1310.37 194.409 1309.95 191.093 1309.11 187.164C1308.36 183.235 1307.19 178.201 1305.61 172.061L1282.37 87.8896C1281.06 83.7148 1279.57 79.54 1277.89 75.3651L1250.31 176.297C1247.97 185.752 1246.81 192.751 1246.81 197.294C1246.81 200.487 1247.37 202.82 1248.49 204.293H1233.65C1235.89 201.469 1238.41 197.233 1241.21 191.584C1244.01 185.936 1246.48 179.428 1248.63 172.061L1276.07 71.3131C1273.08 64.6826 1270.33 59.8324 1267.81 56.7627H1285.17L1317.37 173.166C1319.51 180.042 1321.94 186.305 1324.65 191.953C1327.45 197.601 1329.87 201.714 1331.93 204.293H1308.55Z" fill="#C9D9E7"/>
<path d="M1175 204.53C1176.77 202.32 1178.17 198.145 1179.2 192.006C1180.32 185.744 1180.88 178.745 1180.88 171.009V90.5213C1180.88 82.7856 1180.32 75.848 1179.2 69.7086C1178.17 63.4464 1176.77 59.2102 1175 57H1244.16V71.3662C1241.73 68.051 1238.75 65.4724 1235.2 63.6306C1231.65 61.666 1226.15 60.6837 1218.68 60.6837H1203.14C1199.59 60.6837 1196.93 62.0343 1195.16 64.7357C1193.48 67.437 1192.41 70.8137 1191.94 74.8657C1191.57 78.795 1191.38 84.0135 1191.38 90.5213V128.463C1192.87 124.902 1195.02 122.385 1197.82 120.911C1200.62 119.315 1204.17 118.517 1208.46 118.517H1213.08C1218.59 118.517 1223.72 117.535 1228.48 115.57C1233.33 113.605 1236.69 111.334 1238.56 108.755V131.962C1236.69 129.384 1233.33 127.112 1228.48 125.148C1223.72 123.183 1218.59 122.201 1213.08 122.201H1208.46C1202.49 122.201 1198.15 124.043 1195.44 127.726C1192.73 131.287 1191.38 137.549 1191.38 146.513V171.009C1191.38 177.517 1191.57 182.797 1191.94 186.849C1192.41 190.778 1193.48 194.093 1195.16 196.795C1196.93 199.496 1199.64 200.847 1203.28 200.847H1217.7C1225.73 200.847 1231.89 199.312 1236.18 196.242C1240.57 193.05 1244.16 189.366 1246.96 185.191L1243.6 200.847L1242.76 204.53H1175Z" fill="#C9D9E7"/>
<path d="M1111 204.53C1112.77 202.32 1114.17 198.145 1115.2 192.006C1116.32 185.744 1116.88 178.745 1116.88 171.009V90.5213C1116.88 82.7856 1116.32 75.848 1115.2 69.7086C1114.17 63.4464 1112.77 59.2102 1111 57H1133.26C1131.49 59.2102 1130.04 63.4464 1128.92 69.7086C1127.89 75.848 1127.38 82.7856 1127.38 90.5213V171.009C1127.38 177.517 1127.57 182.797 1127.94 186.849C1128.41 190.778 1129.48 194.093 1131.16 196.795C1132.93 199.496 1135.64 200.847 1139.28 200.847H1155.1C1163.13 200.847 1169.29 199.312 1173.58 196.242C1177.97 193.05 1181.56 189.366 1184.36 185.191L1181 200.847L1180.16 204.53H1111Z" fill="#C9D9E7"/>
<path d="M1089 204.53C1090.77 202.32 1092.17 198.145 1093.2 192.006C1094.32 185.744 1094.88 178.745 1094.88 171.009V90.5213C1094.88 82.7856 1094.32 75.848 1093.2 69.7086C1092.17 63.4464 1090.77 59.2102 1089 57H1111.26C1109.49 59.2102 1108.04 63.4464 1106.92 69.7086C1105.89 75.848 1105.38 82.7856 1105.38 90.5213V171.009C1105.38 178.745 1105.89 185.744 1106.92 192.006C1108.04 198.145 1109.49 202.32 1111.26 204.53H1089Z" fill="#C9D9E7"/>
<path d="M1023 204.53C1024.77 202.32 1026.17 198.145 1027.2 192.006C1028.32 185.744 1028.88 178.745 1028.88 171.009V90.5213C1028.88 82.7856 1028.32 75.848 1027.2 69.7086C1026.17 63.4464 1024.77 59.2102 1023 57H1045.26C1043.49 59.2102 1042.04 63.4464 1040.92 69.7086C1039.89 75.848 1039.38 82.7856 1039.38 90.5213V171.009C1039.38 177.517 1039.57 182.797 1039.94 186.849C1040.41 190.778 1041.48 194.093 1043.16 196.795C1044.93 199.496 1047.64 200.847 1051.28 200.847H1067.1C1075.13 200.847 1081.29 199.312 1085.58 196.242C1089.97 193.05 1093.56 189.366 1096.36 185.191L1093 200.847L1092.16 204.53H1023Z" fill="#C9D9E7"/>
<path d="M960 204.53C961.773 202.32 963.173 198.145 964.2 192.006C965.32 185.744 965.88 178.745 965.88 171.009V90.5213C965.88 82.7856 965.32 75.848 964.2 69.7086C963.173 63.4464 961.773 59.2102 960 57H982.26C980.487 59.2102 979.04 63.4464 977.92 69.7086C976.893 75.848 976.38 82.7856 976.38 90.5213V171.009C976.38 177.517 976.567 182.797 976.94 186.849C977.407 190.778 978.48 194.093 980.16 196.795C981.933 199.496 984.64 200.847 988.28 200.847H1004.1C1012.13 200.847 1018.29 199.312 1022.58 196.242C1026.97 193.05 1030.56 189.366 1033.36 185.191L1030 200.847L1029.16 204.53H960Z" fill="#C9D9E7"/>
<path d="M938 204.53C939.773 202.32 941.173 198.145 942.2 192.006C943.32 185.744 943.88 178.745 943.88 171.009V90.5213C943.88 82.7856 943.32 75.848 942.2 69.7086C941.173 63.4464 939.773 59.2102 938 57H960.26C958.487 59.2102 957.04 63.4464 955.92 69.7086C954.893 75.848 954.38 82.7856 954.38 90.5213V171.009C954.38 178.745 954.893 185.744 955.92 192.006C957.04 198.145 958.487 202.32 960.26 204.53H938Z" fill="#C9D9E7"/>
<path d="M858 204.53C859.773 202.32 861.173 198.145 862.2 192.006C863.32 185.744 863.88 178.745 863.88 171.009V90.5213C863.88 82.7856 863.32 75.848 862.2 69.7086C861.173 63.4464 859.773 59.2102 858 57H880.26C878.487 59.2102 877.04 63.4464 875.92 69.7086C874.893 75.848 874.38 82.7856 874.38 90.5213V144.671C874.38 141.356 874.987 138.102 876.2 134.909C877.507 131.594 879.327 128.893 881.66 126.805C884.087 124.718 886.84 123.674 889.92 123.674C891.787 123.674 893.56 123.858 895.24 124.227L911.76 83.3381C913.813 77.9354 915.353 73.5151 916.38 70.077C917.407 66.6389 917.92 63.7534 917.92 61.4204C917.92 59.5786 917.5 58.1051 916.66 57H940.74C938.127 59.333 935.047 63.385 931.5 69.1561C928.047 74.8043 924.78 81.4963 921.7 89.232L905.18 129.752C910.313 134.418 914.187 141.847 916.8 152.038L923.1 176.35C925.06 183.104 927.253 188.875 929.68 193.664C932.107 198.452 934.487 202.075 936.82 204.53H919.04L905.6 152.591C904.107 146.574 901.913 141.049 899.02 136.014C896.22 130.857 892.813 128.279 888.8 128.279C884.413 128.279 880.913 131.471 878.3 137.856C875.687 144.241 874.38 154.862 874.38 169.72V171.009C874.38 178.745 874.893 185.744 875.92 192.006C877.04 198.145 878.487 202.32 880.26 204.53H858Z" fill="#C9D9E7"/>
<path d="M446 206.53C447.773 204.32 449.173 200.145 450.2 194.006C451.32 187.744 451.88 180.745 451.88 173.009V92.5213C451.88 84.7856 451.32 77.848 450.2 71.7086C449.173 65.4464 447.773 61.2102 446 59H515.16V73.3662C512.733 70.051 509.747 67.4724 506.2 65.6306C502.653 63.666 497.147 62.6837 489.68 62.6837H474.14C470.593 62.6837 467.933 64.0343 466.16 66.7357C464.48 69.437 463.407 72.8137 462.94 76.8657C462.567 80.795 462.38 86.0135 462.38 92.5213V130.463C463.873 126.902 466.02 124.385 468.82 122.911C471.62 121.315 475.167 120.517 479.46 120.517H484.08C489.587 120.517 494.72 119.535 499.48 117.57C504.333 115.605 507.693 113.334 509.56 110.755V133.962C507.693 131.384 504.333 129.112 499.48 127.148C494.72 125.183 489.587 124.201 484.08 124.201H479.46C473.487 124.201 469.147 126.043 466.44 129.726C463.733 133.287 462.38 139.549 462.38 148.513V173.009C462.38 179.517 462.567 184.797 462.94 188.849C463.407 192.778 464.48 196.093 466.16 198.795C467.933 201.496 470.64 202.847 474.28 202.847H488.7C496.727 202.847 502.887 201.312 507.18 198.242C511.567 195.05 515.16 191.366 517.96 187.191L514.6 202.847L513.76 206.53H446Z" fill="#C9D9E7"/>
<path d="M392.36 205.24C384.147 205.24 376.587 202.416 369.68 196.768C362.773 190.997 357.267 182.34 353.16 170.798C349.053 159.133 347 145.012 347 128.436C347 111.859 349.053 97.8615 353.16 86.4422C357.267 74.9001 362.773 66.3049 369.68 60.6566C376.587 54.8855 384.147 52 392.36 52C400.573 52 408.133 54.8855 415.04 60.6566C422.04 66.3049 427.593 74.9001 431.7 86.4422C435.9 97.9843 438 111.982 438 128.436C438 145.012 435.9 159.072 431.7 170.614C427.593 182.156 422.04 190.812 415.04 196.583C408.133 202.354 400.573 205.24 392.36 205.24ZM359.18 128.436C360.3 145.995 362.82 160.115 366.74 170.798C370.66 181.48 375.28 189.093 380.6 193.637C385.92 198.057 391.473 200.267 397.26 200.267C405.473 200.267 412.333 195.847 417.84 187.006C423.44 178.042 426.24 163.369 426.24 142.986C426.24 138.443 426.1 133.593 425.82 128.436C424.7 110.877 422.133 96.8178 418.12 86.258C414.2 75.5754 409.533 68.0239 404.12 63.6035C398.8 59.1831 393.247 56.9729 387.46 56.9729C379.34 56.9729 372.527 61.3933 367.02 70.2341C361.513 79.0749 358.76 93.6253 358.76 113.885C358.76 118.429 358.9 123.279 359.18 128.436Z" fill="#C9D9E7"/>
<path d="M274 204.53C275.773 202.32 277.173 198.145 278.2 192.006C279.32 185.744 279.88 178.745 279.88 171.009V90.5213C279.88 82.7856 279.32 75.848 278.2 69.7086C277.173 63.4464 275.773 59.2102 274 57H296.26C294.487 59.2102 293.04 63.4464 291.92 69.7086C290.893 75.848 290.38 82.7856 290.38 90.5213V171.009C290.38 177.517 290.567 182.797 290.94 186.849C291.407 190.778 292.48 194.093 294.16 196.795C295.933 199.496 298.64 200.847 302.28 200.847H318.1C326.127 200.847 332.287 199.312 336.58 196.242C340.967 193.05 344.56 189.366 347.36 185.191L344 200.847L343.16 204.53H274Z" fill="#C9D9E7"/>
<path d="M178 204.53C179.773 202.32 181.173 198.145 182.2 192.006C183.32 185.744 183.88 178.745 183.88 171.009V90.5213C183.88 82.7856 183.32 75.848 182.2 69.7086C181.173 63.4464 179.773 59.2102 178 57H200.26C198.487 59.2102 197.04 63.4464 195.92 69.7086C194.893 75.848 194.38 82.7856 194.38 90.5213V145.408C195.873 141.97 198.067 139.452 200.96 137.856C203.947 136.26 207.68 135.4 212.16 135.278C221.12 135.032 227.84 133.497 232.32 130.673C236.8 127.726 239.787 123.429 241.28 117.78C242.867 112.009 243.66 103.967 243.66 93.6524V90.5213C243.66 82.7856 243.1 75.848 241.98 69.7086C240.953 63.4464 239.553 59.2102 237.78 57H260.04C258.267 59.2102 256.82 63.4464 255.7 69.7086C254.673 75.848 254.16 82.7856 254.16 90.5213V171.009C254.16 178.745 254.673 185.744 255.7 192.006C256.82 198.145 258.267 202.32 260.04 204.53H237.78C239.553 202.32 240.953 198.145 241.98 192.006C243.1 185.744 243.66 178.745 243.66 171.009V130.857C240.487 133.681 236.427 135.707 231.48 136.935C226.533 138.04 220.28 138.716 212.72 138.961C206.093 139.207 201.38 141.049 198.58 144.487C195.78 147.925 194.38 154.126 194.38 163.089V171.009C194.38 178.745 194.893 185.744 195.92 192.006C197.04 198.145 198.487 202.32 200.26 204.53H178Z" fill="#C9D9E7"/>
<path d="M138.36 207.24C130.147 207.24 122.587 204.416 115.68 198.768C108.773 192.997 103.267 184.34 99.16 172.798C95.0533 161.133 93 147.012 93 130.436C93 113.859 95.0533 99.8615 99.16 88.4422C103.267 76.9001 108.773 68.3049 115.68 62.6566C122.587 56.8855 130.147 54 138.36 54C143.307 54 148.02 55.0437 152.5 57.1311C157.073 59.2185 161.273 62.2882 165.1 66.3402L154.32 84.3901C152.733 76.2861 149.933 70.0239 145.92 65.6035C141.907 61.1831 137.753 58.9729 133.46 58.9729C125.34 58.9729 118.527 63.3933 113.02 72.2341C107.513 81.0749 104.76 95.6253 104.76 115.885C104.76 120.429 104.9 125.279 105.18 130.436C106.767 155.853 111.153 173.596 118.34 183.665C125.527 193.61 133.833 198.583 143.26 198.583C148.86 198.583 153.993 197.171 158.66 194.347C163.327 191.4 167.853 186.12 172.24 178.508L174.48 180.718C170.28 189.436 165.007 196.066 158.66 200.609C152.407 205.03 145.64 207.24 138.36 207.24Z" fill="#C9D9E7"/>
<g clip-path="url(#clip0_333_1349)">
<path d="M700.228 206.649C745.389 206.649 782 171.617 782 128.404C782 85.1902 745.389 50.1587 700.228 50.1587C655.067 50.1587 618.456 85.1902 618.456 128.404C618.456 171.617 655.067 206.649 700.228 206.649Z" fill="#C9D9E7"/>
<path d="M718.261 61.0955C718.261 61.0955 718.949 57.9832 721.315 59.2188C721.315 59.2188 708.609 47.5738 682.47 54.9408C670.458 58.327 660.877 69.9866 654.028 81.5994C644.002 98.6006 639.491 118.111 641.498 137.537C641.559 138.119 641.623 138.696 641.696 139.268C643.152 150.886 647.72 182.761 676.126 196.557C701.404 208.834 731.457 195.671 737.764 192.626C738.58 192.232 739.235 191.591 739.625 190.799C740.66 188.692 741.9 185.23 739.826 182.452C739.113 181.499 738.732 180.351 738.836 179.183C739.052 176.758 742.798 173.529 749.291 181.73C757.755 192.422 730.162 200.849 731.646 200.675C731.646 200.675 672.252 225.591 634.165 175.759C622.114 159.993 617.408 141.176 618.861 121.692C620.36 101.593 629.648 75.8935 663.588 58.4319C663.588 58.4319 698.97 39.385 734.246 57.2255C734.246 57.2255 748.216 70.1264 732.507 71.9798C716.799 73.8332 718.264 61.0926 718.264 61.0926L718.261 61.0955Z" fill="#D5594C"/>
<path d="M707.114 167.526C707.114 167.526 708.427 176.682 711.634 179.057H691.122C691.122 179.057 695.706 175.811 696.564 159.151C697.423 142.494 696.354 98.1344 696.354 98.1344C696.354 98.1344 695.998 83.5665 691.122 78.9855H711.634C711.634 78.9855 706.779 83.6714 706.563 96.788" fill="#D5594C"/>
<path d="M768.35 94.4625C774.009 87.0023 759.351 93.1016 760.697 85.3675C760.697 85.3675 745.755 98.009 732.136 127.413L724.26 121.235C724.26 121.235 751.441 84.5427 745.634 63.3336C751.874 66.8335 774.252 84.1289 779.417 109.045L774.377 103.167C773.162 101.748 771.639 100.6 769.912 99.8013L769.705 99.7051C767.64 98.7463 767.001 96.2402 768.347 94.4625H768.35Z" fill="#D5594C"/>
<path d="M732.136 127.416C732.136 127.416 735.55 123.922 749.419 170.577C749.693 171.501 750.086 172.39 750.595 173.215C752.218 175.849 757.252 182.146 764.354 177C764.747 177.385 751.761 191.518 744.556 194.296L740.898 177.204C740.898 177.204 733.315 176.732 731.338 149.287C731.119 146.235 730.424 143.231 729.252 140.387C725.369 130.971 715.736 112.868 703.667 128.016V123.254C703.667 123.254 708.914 115.104 724.26 121.238L732.136 127.416Z" fill="#D5594C"/>
<path d="M746.444 70.2489C746.444 70.2489 743.496 62.3777 732.937 56.5407C732.937 56.5407 743.48 61.4831 745.633 63.3365C747.787 65.1899 746.447 70.2489 746.447 70.2489H746.444Z" fill="#D5594C"/>
</g>
<defs>
<clipPath id="clip0_333_1349">
<rect width="164" height="158" fill="white" transform="translate(618 49)"/>
</clipPath>
</defs>
</svg>
